<mxfile host="app.diagrams.net" modified="2023-05-17T01:04:30.560Z" agent="Mozilla/5.0 (Windows NT 10.0; Win64; x64) AppleWebKit/537.36 (KHTML, like Gecko) Chrome/113.0.0.0 Safari/537.36" etag="h1RnLypqWZy0XAbTQ0v-" version="21.2.1" type="device">
  <diagram name="페이지-1" id="2FfxSmRKu2mEA89YIbCd">
    <mxGraphModel dx="1679" dy="935" grid="1" gridSize="10" guides="1" tooltips="1" connect="1" arrows="1" fold="1" page="1" pageScale="1" pageWidth="4681" pageHeight="3300" math="0" shadow="0">
      <root>
        <mxCell id="0" />
        <mxCell id="1" parent="0" />
        <mxCell id="Y3CAUvhzmmAj4dqdbwYr-9" style="rounded=0;orthogonalLoop=1;jettySize=auto;html=1;exitX=0.5;exitY=1;exitDx=0;exitDy=0;entryX=0.5;entryY=0;entryDx=0;entryDy=0;" edge="1" parent="1" source="Y3CAUvhzmmAj4dqdbwYr-1" target="Y3CAUvhzmmAj4dqdbwYr-2">
          <mxGeometry relative="1" as="geometry" />
        </mxCell>
        <mxCell id="Y3CAUvhzmmAj4dqdbwYr-10" style="rounded=0;orthogonalLoop=1;jettySize=auto;html=1;exitX=0.5;exitY=1;exitDx=0;exitDy=0;entryX=0.607;entryY=-0.029;entryDx=0;entryDy=0;entryPerimeter=0;" edge="1" parent="1" source="Y3CAUvhzmmAj4dqdbwYr-1" target="Y3CAUvhzmmAj4dqdbwYr-4">
          <mxGeometry relative="1" as="geometry" />
        </mxCell>
        <mxCell id="Y3CAUvhzmmAj4dqdbwYr-11" style="rounded=0;orthogonalLoop=1;jettySize=auto;html=1;exitX=0.519;exitY=1.016;exitDx=0;exitDy=0;exitPerimeter=0;entryX=0.554;entryY=0.026;entryDx=0;entryDy=0;entryPerimeter=0;" edge="1" parent="1" source="Y3CAUvhzmmAj4dqdbwYr-1" target="Y3CAUvhzmmAj4dqdbwYr-5">
          <mxGeometry relative="1" as="geometry" />
        </mxCell>
        <mxCell id="Y3CAUvhzmmAj4dqdbwYr-12" style="rounded=0;orthogonalLoop=1;jettySize=auto;html=1;exitX=0.519;exitY=1.01;exitDx=0;exitDy=0;exitPerimeter=0;entryX=0.449;entryY=-0.017;entryDx=0;entryDy=0;entryPerimeter=0;" edge="1" parent="1" source="Y3CAUvhzmmAj4dqdbwYr-1" target="Y3CAUvhzmmAj4dqdbwYr-6">
          <mxGeometry relative="1" as="geometry" />
        </mxCell>
        <mxCell id="Y3CAUvhzmmAj4dqdbwYr-13" style="rounded=0;orthogonalLoop=1;jettySize=auto;html=1;entryX=0.5;entryY=0;entryDx=0;entryDy=0;exitX=0.5;exitY=1;exitDx=0;exitDy=0;" edge="1" parent="1" source="Y3CAUvhzmmAj4dqdbwYr-1" target="Y3CAUvhzmmAj4dqdbwYr-7">
          <mxGeometry relative="1" as="geometry" />
        </mxCell>
        <mxCell id="Y3CAUvhzmmAj4dqdbwYr-14" style="rounded=0;orthogonalLoop=1;jettySize=auto;html=1;exitX=0.5;exitY=1;exitDx=0;exitDy=0;entryX=0.5;entryY=0;entryDx=0;entryDy=0;" edge="1" parent="1" source="Y3CAUvhzmmAj4dqdbwYr-1" target="Y3CAUvhzmmAj4dqdbwYr-8">
          <mxGeometry relative="1" as="geometry" />
        </mxCell>
        <mxCell id="Y3CAUvhzmmAj4dqdbwYr-1" value="고객정보" style="rounded=1;arcSize=10;whiteSpace=wrap;html=1;align=center;" vertex="1" parent="1">
          <mxGeometry x="450" y="360" width="100" height="40" as="geometry" />
        </mxCell>
        <mxCell id="Y3CAUvhzmmAj4dqdbwYr-2" value="고객ID" style="ellipse;whiteSpace=wrap;html=1;align=center;fontStyle=4;" vertex="1" parent="1">
          <mxGeometry x="160" y="530" width="100" height="40" as="geometry" />
        </mxCell>
        <mxCell id="Y3CAUvhzmmAj4dqdbwYr-4" value="고객이름" style="ellipse;whiteSpace=wrap;html=1;align=center;" vertex="1" parent="1">
          <mxGeometry x="280" y="530" width="100" height="40" as="geometry" />
        </mxCell>
        <mxCell id="Y3CAUvhzmmAj4dqdbwYr-5" value="전화번호" style="ellipse;whiteSpace=wrap;html=1;align=center;" vertex="1" parent="1">
          <mxGeometry x="390" y="530" width="100" height="40" as="geometry" />
        </mxCell>
        <mxCell id="Y3CAUvhzmmAj4dqdbwYr-6" value="주소" style="ellipse;whiteSpace=wrap;html=1;align=center;" vertex="1" parent="1">
          <mxGeometry x="500" y="530" width="100" height="40" as="geometry" />
        </mxCell>
        <mxCell id="Y3CAUvhzmmAj4dqdbwYr-7" value="생년월일" style="ellipse;whiteSpace=wrap;html=1;align=center;" vertex="1" parent="1">
          <mxGeometry x="610" y="530" width="100" height="40" as="geometry" />
        </mxCell>
        <mxCell id="Y3CAUvhzmmAj4dqdbwYr-8" value="직업" style="ellipse;whiteSpace=wrap;html=1;align=center;" vertex="1" parent="1">
          <mxGeometry x="720" y="530" width="100" height="40" as="geometry" />
        </mxCell>
        <mxCell id="Y3CAUvhzmmAj4dqdbwYr-22" style="rounded=0;orthogonalLoop=1;jettySize=auto;html=1;exitX=0.5;exitY=1;exitDx=0;exitDy=0;entryX=0.5;entryY=0;entryDx=0;entryDy=0;" edge="1" parent="1" source="Y3CAUvhzmmAj4dqdbwYr-15" target="Y3CAUvhzmmAj4dqdbwYr-16">
          <mxGeometry relative="1" as="geometry" />
        </mxCell>
        <mxCell id="Y3CAUvhzmmAj4dqdbwYr-23" style="rounded=0;orthogonalLoop=1;jettySize=auto;html=1;exitX=0.5;exitY=1;exitDx=0;exitDy=0;entryX=0.5;entryY=0;entryDx=0;entryDy=0;" edge="1" parent="1" source="Y3CAUvhzmmAj4dqdbwYr-15" target="Y3CAUvhzmmAj4dqdbwYr-17">
          <mxGeometry relative="1" as="geometry" />
        </mxCell>
        <mxCell id="Y3CAUvhzmmAj4dqdbwYr-24" style="rounded=0;orthogonalLoop=1;jettySize=auto;html=1;entryX=0.5;entryY=0;entryDx=0;entryDy=0;exitX=0.5;exitY=1;exitDx=0;exitDy=0;" edge="1" parent="1" source="Y3CAUvhzmmAj4dqdbwYr-15" target="Y3CAUvhzmmAj4dqdbwYr-18">
          <mxGeometry relative="1" as="geometry" />
        </mxCell>
        <mxCell id="Y3CAUvhzmmAj4dqdbwYr-25" style="rounded=0;orthogonalLoop=1;jettySize=auto;html=1;entryX=0.5;entryY=0;entryDx=0;entryDy=0;exitX=0.5;exitY=1;exitDx=0;exitDy=0;" edge="1" parent="1" source="Y3CAUvhzmmAj4dqdbwYr-15" target="Y3CAUvhzmmAj4dqdbwYr-19">
          <mxGeometry relative="1" as="geometry" />
        </mxCell>
        <mxCell id="Y3CAUvhzmmAj4dqdbwYr-26" style="rounded=0;orthogonalLoop=1;jettySize=auto;html=1;entryX=0.5;entryY=0;entryDx=0;entryDy=0;exitX=0.5;exitY=1;exitDx=0;exitDy=0;" edge="1" parent="1" source="Y3CAUvhzmmAj4dqdbwYr-15" target="Y3CAUvhzmmAj4dqdbwYr-20">
          <mxGeometry relative="1" as="geometry" />
        </mxCell>
        <mxCell id="Y3CAUvhzmmAj4dqdbwYr-27" style="rounded=0;orthogonalLoop=1;jettySize=auto;html=1;entryX=0.5;entryY=0;entryDx=0;entryDy=0;exitX=0.5;exitY=1;exitDx=0;exitDy=0;" edge="1" parent="1" source="Y3CAUvhzmmAj4dqdbwYr-15" target="Y3CAUvhzmmAj4dqdbwYr-21">
          <mxGeometry relative="1" as="geometry" />
        </mxCell>
        <mxCell id="Y3CAUvhzmmAj4dqdbwYr-15" value="계좌정보" style="rounded=1;arcSize=10;whiteSpace=wrap;html=1;align=center;" vertex="1" parent="1">
          <mxGeometry x="1260" y="380" width="100" height="40" as="geometry" />
        </mxCell>
        <mxCell id="Y3CAUvhzmmAj4dqdbwYr-16" value="계좌번호" style="ellipse;whiteSpace=wrap;html=1;align=center;fontStyle=4;" vertex="1" parent="1">
          <mxGeometry x="980" y="520" width="100" height="40" as="geometry" />
        </mxCell>
        <mxCell id="Y3CAUvhzmmAj4dqdbwYr-17" value="입출일자" style="ellipse;whiteSpace=wrap;html=1;align=center;" vertex="1" parent="1">
          <mxGeometry x="1100" y="520" width="100" height="40" as="geometry" />
        </mxCell>
        <mxCell id="Y3CAUvhzmmAj4dqdbwYr-18" value="입출시간" style="ellipse;whiteSpace=wrap;html=1;align=center;" vertex="1" parent="1">
          <mxGeometry x="1210" y="520" width="100" height="40" as="geometry" />
        </mxCell>
        <mxCell id="Y3CAUvhzmmAj4dqdbwYr-19" value="입출구분" style="ellipse;whiteSpace=wrap;html=1;align=center;" vertex="1" parent="1">
          <mxGeometry x="1320" y="520" width="100" height="40" as="geometry" />
        </mxCell>
        <mxCell id="Y3CAUvhzmmAj4dqdbwYr-20" value="입금" style="ellipse;whiteSpace=wrap;html=1;align=center;" vertex="1" parent="1">
          <mxGeometry x="1430" y="520" width="100" height="40" as="geometry" />
        </mxCell>
        <mxCell id="Y3CAUvhzmmAj4dqdbwYr-21" value="출금" style="ellipse;whiteSpace=wrap;html=1;align=center;" vertex="1" parent="1">
          <mxGeometry x="1540" y="520" width="100" height="40" as="geometry" />
        </mxCell>
        <mxCell id="Y3CAUvhzmmAj4dqdbwYr-28" value="거래내역&lt;br&gt;" style="shape=rhombus;perimeter=rhombusPerimeter;whiteSpace=wrap;html=1;align=center;" vertex="1" parent="1">
          <mxGeometry x="830" y="140" width="120" height="60" as="geometry" />
        </mxCell>
        <mxCell id="Y3CAUvhzmmAj4dqdbwYr-29" value="" style="edgeStyle=entityRelationEdgeStyle;fontSize=12;html=1;endArrow=ERoneToMany;rounded=0;exitX=0.5;exitY=0;exitDx=0;exitDy=0;entryX=0;entryY=0.5;entryDx=0;entryDy=0;" edge="1" parent="1" source="Y3CAUvhzmmAj4dqdbwYr-1" target="Y3CAUvhzmmAj4dqdbwYr-28">
          <mxGeometry width="100" height="100" relative="1" as="geometry">
            <mxPoint x="560" y="360" as="sourcePoint" />
            <mxPoint x="660" y="260" as="targetPoint" />
          </mxGeometry>
        </mxCell>
        <mxCell id="Y3CAUvhzmmAj4dqdbwYr-30" value="" style="edgeStyle=entityRelationEdgeStyle;fontSize=12;html=1;endArrow=ERoneToMany;rounded=0;exitX=0.5;exitY=0;exitDx=0;exitDy=0;entryX=1;entryY=0.5;entryDx=0;entryDy=0;" edge="1" parent="1" source="Y3CAUvhzmmAj4dqdbwYr-15" target="Y3CAUvhzmmAj4dqdbwYr-28">
          <mxGeometry width="100" height="100" relative="1" as="geometry">
            <mxPoint x="710" y="390" as="sourcePoint" />
            <mxPoint x="1050" y="290" as="targetPoint" />
          </mxGeometry>
        </mxCell>
      </root>
    </mxGraphModel>
  </diagram>
</mxfile>
